{
  "accessors": [
    {
      "bufferView": 2,
      "componentType": 5126,
      "count": 12170,
      "max": [
        0.15638600289821625,
        0.046144999563694,
        0.23553399741649628
      ],
      "min": [
        0.0636340007185936,
        -0.04617900028824806,
        -4.999999873689376e-06
      ],
      "type": "VEC3"
    },
    {
      "bufferView": 2,
      "byteOffset": 146040,
      "componentType": 5126,
      "count": 12170,
      "max": [
        0.9999854564666748,
        0.9999854564666748,
        1.0
      ],
      "min": [
        -0.9999895095825195,
        -0.9999734163284302,
        -1.0
      ],
      "type": "VEC3"
    },
    {
      "bufferView": 1,
      "componentType": 5126,
      "count": 12170,
      "max": [
        0.9973070025444031,
        0.9847649931907654
      ],
      "min": [
        0.010320999659597874,
        0.011846000328660011
      ],
      "type": "VEC2"
    },
    {
      "bufferView": 0,
      "componentType": 5125,
      "count": 66948,
      "type": "SCALAR"
    },
    {
      "bufferView": 2,
      "byteOffset": 292080,
      "componentType": 5126,
      "count": 12157,
      "max": [
        -0.06361299753189087,
        0.046144999563694,
        0.23553399741649628
      ],
      "min": [
        -0.1563670039176941,
        -0.04617999866604805,
        -4.999999873689376e-06
      ],
      "type": "VEC3"
    },
    {
      "bufferView": 2,
      "byteOffset": 437964,
      "componentType": 5126,
      "count": 12157,
      "max": [
        0.999995231628418,
        0.999995231628418,
        1.0
      ],
      "min": [
        -0.9999992847442627,
        -0.9999992847442627,
        -1.0
      ],
      "type": "VEC3"
    },
    {
      "bufferView": 3,
      "componentType": 5126,
      "count": 12157,
      "max": [
        0.9991449117660522,
        0.9998866319656372,
        1.0,
        1.0
      ],
      "min": [
        -0.9991497993469238,
        -0.9999901652336121,
        -1.0,
        -1.0
      ],
      "type": "VEC4"
    },
    {
      "bufferView": 1,
      "byteOffset": 97360,
      "componentType": 5126,
      "count": 12157,
      "max": [
        0.9973070025444031,
        0.9847649931907654
      ],
      "min": [
        0.010320999659597874,
        0.011846000328660011
      ],
      "type": "VEC2"
    },
    {
      "bufferView": 0,
      "byteOffset": 267792,
      "componentType": 5125,
      "count": 66891,
      "type": "SCALAR"
    },
    {
      "bufferView": 2,
      "byteOffset": 583848,
      "componentType": 5126,
      "count": 12167,
      "max": [
        0.04637200012803078,
        0.04613199830055237,
        0.23553399741649628
      ],
      "min": [
        -0.04635399952530861,
        -0.046167999505996704,
        -4.999999873689376e-06
      ],
      "type": "VEC3"
    },
    {
      "bufferView": 2,
      "byteOffset": 729852,
      "componentType": 5126,
      "count": 12167,
      "max": [
        0.9999206066131592,
        0.9998655319213867,
        1.0
      ],
      "min": [
        -0.999850332736969,
        -0.9998156428337097,
        -1.0
      ],
      "type": "VEC3"
    },
    {
      "bufferView": 3,
      "byteOffset": 194512,
      "componentType": 5126,
      "count": 12167,
      "max": [
        0.998484194278717,
        0.9998900294303894,
        1.0,
        1.0
      ],
      "min": [
        -0.99980628490448,
        -0.9998222589492798,
        -1.0,
        -1.0
      ],
      "type": "VEC4"
    },
    {
      "bufferView": 1,
      "byteOffset": 194616,
      "componentType": 5126,
      "count": 12167,
      "max": [
        0.9973070025444031,
        0.9847649931907654
      ],
      "min": [
        0.010320999659597874,
        0.011846000328660011
      ],
      "type": "VEC2"
    },
    {
      "bufferView": 0,
      "byteOffset": 535356,
      "componentType": 5125,
      "count": 66942,
      "type": "SCALAR"
    }
  ],
  "asset": {
    "extras": {
      "author": "Safat_Rules (https://sketchfab.com/Safat_Rules)",
      "license": "CC-BY-4.0 (http://creativecommons.org/licenses/by/4.0/)",
      "source": "https://sketchfab.com/3d-models/pepsi-cans-1e15b1c20caf4741bbc883bc8051a282",
      "title": "Pepsi Cans"
    },
    "generator": "Sketchfab-15.66.0",
    "version": "2.0"
  },
  "bufferViews": [
    {
      "buffer": 0,
      "byteLength": 803124,
      "name": "floatBufferViews",
      "target": 34963
    },
    {
      "buffer": 0,
      "byteLength": 291952,
      "byteOffset": 803124,
      "byteStride": 8,
      "name": "floatBufferViews",
      "target": 34962
    },
    {
      "buffer": 0,
      "byteLength": 875856,
      "byteOffset": 1095076,
      "byteStride": 12,
      "name": "floatBufferViews",
      "target": 34962
    },
    {
      "buffer": 0,
      "byteLength": 389184,
      "byteOffset": 1970932,
      "byteStride": 16,
      "name": "floatBufferViews",
      "target": 34962
    }
  ],
  "buffers": [
    {
      "byteLength": 2360116,
      "uri": "scene.bin"
    }
  ],
  "images": [
    {
      "uri": "textures/Pepsi_can_baseColor.png"
    },
    {
      "uri": "textures/Pepsi_can_metallicRoughness.png"
    },
    {
      "uri": "textures/Pepsi_can_Cold__Wet_baseColor.png"
    },
    {
      "uri": "textures/Pepsi_can_Cold__Wet_metallicRoughness.png"
    },
    {
      "uri": "textures/Pepsi_can_Cold__Wet_normal.png"
    },
    {
      "uri": "textures/Pepsi_can_Wet_baseColor.png"
    },
    {
      "uri": "textures/Pepsi_can_Wet_metallicRoughness.png"
    },
    {
      "uri": "textures/Pepsi_can_Wet_normal.png"
    }
  ],
  "materials": [
    {
      "doubleSided": true,
      "name": "Pepsi_can",
      "pbrMetallicRoughness": {
        "baseColorTexture": {
          "index": 0
        },
        "metallicRoughnessTexture": {
          "index": 1
        }
      }
    },
    {
      "doubleSided": true,
      "name": "Pepsi_can_Cold__Wet",
      "normalTexture": {
        "index": 4
      },
      "pbrMetallicRoughness": {
        "baseColorTexture": {
          "index": 2
        },
        "metallicRoughnessTexture": {
          "index": 3
        }
      }
    },
    {
      "doubleSided": true,
      "name": "Pepsi_can_Wet",
      "normalTexture": {
        "index": 7
      },
      "pbrMetallicRoughness": {
        "baseColorTexture": {
          "index": 5
        },
        "metallicRoughnessTexture": {
          "index": 6
        }
      }
    }
  ],
  "meshes": [
    {
      "name": "Object_0",
      "primitives": [
        {
          "attributes": {
            "NORMAL": 1,
            "POSITION": 0,
            "TEXCOORD_0": 2
          },
          "indices": 3,
          "material": 0,
          "mode": 4
        }
      ]
    },
    {
      "name": "Object_1",
      "primitives": [
        {
          "attributes": {
            "NORMAL": 5,
            "POSITION": 4,
            "TANGENT": 6,
            "TEXCOORD_0": 7
          },
          "indices": 8,
          "material": 1,
          "mode": 4
        }
      ]
    },
    {
      "name": "Object_2",
      "primitives": [
        {
          "attributes": {
            "NORMAL": 10,
            "POSITION": 9,
            "TANGENT": 11,
            "TEXCOORD_0": 12
          },
          "indices": 13,
          "material": 2,
          "mode": 4
        }
      ]
    }
  ],
  "nodes": [
    {
      "children": [
        1
      ],
      "matrix": [
        1.0,
        0.0,
        0.0,
        0.0,
        0.0,
        2.220446049250313e-16,
        -1.0,
        0.0,
        0.0,
        1.0,
        2.220446049250313e-16,
        0.0,
        0.0,
        0.0,
        0.0,
        1.0
      ],
      "name": "Sketchfab_model"
    },
    {
      "children": [
        2,
        3,
        4
      ],
      "name": "Pepsi cans.obj.cleaner.materialmerger.gles"
    },
    {
      "mesh": 0,
      "name": "Object_2"
    },
    {
      "mesh": 1,
      "name": "Object_3"
    },
    {
      "mesh": 2,
      "name": "Object_4"
    }
  ],
  "samplers": [
    {
      "magFilter": 9729,
      "minFilter": 9987,
      "wrapS": 10497,
      "wrapT": 10497
    }
  ],
  "scene": 0,
  "scenes": [
    {
      "name": "Sketchfab_Scene",
      "nodes": [
        0
      ]
    }
  ],
  "textures": [
    {
      "sampler": 0,
      "source": 0
    },
    {
      "sampler": 0,
      "source": 1
    },
    {
      "sampler": 0,
      "source": 2
    },
    {
      "sampler": 0,
      "source": 3
    },
    {
      "sampler": 0,
      "source": 4
    },
    {
      "sampler": 0,
      "source": 5
    },
    {
      "sampler": 0,
      "source": 6
    },
    {
      "sampler": 0,
      "source": 7
    }
  ]
}
